<svg xmlns="http://www.w3.org/2000/svg" version="1.1" xmlns:xlink="http://www.w3.org/1999/xlink" xmlns:svgjs="http://svgjs.com/svgjs" width="256" height="256"><svg xmlns="http://www.w3.org/2000/svg" width="256" height="256" viewBox="0 0 100 100"><rect width="100" height="100" rx="20" fill="#121212"></rect><path fill="#fff" d="M25.25 81.47L24.63 93.91Q22.13 93.78 19.63 93.72Q17.13 93.66 14.63 93.66L14.63 93.66Q10.50 93.66 6.38 93.81Q2.25 93.97-1.88 94.28L-1.88 94.28L-1.75 80.84Q-0.31 81.03 1.13 81.13Q2.56 81.22 4 81.34L4 81.34Q4.38 71.66 4.72 62.06Q5.06 52.47 5.06 42.84L5.06 42.84Q5.06 36.41 4.88 30.13Q4.69 23.84 4.50 17.47L4.50 17.47Q2.88 17.47 1.19 17.53Q-0.50 17.59-2.25 17.72L-2.25 17.72L-2.13 4.66Q2.69 4.97 7.50 5.13Q12.31 5.28 17.19 5.28L17.19 5.28Q18.94 5.28 20.69 5.28Q22.44 5.28 24.25 5.16L24.25 5.16L23.88 17.59Q22.44 17.59 21.03 17.53Q19.63 17.47 18.19 17.47L18.19 17.47Q17.31 28.72 16.94 39.81Q16.56 50.91 16.56 62.16L16.56 62.16Q16.56 71.97 16.94 81.72L16.94 81.72Q18.94 81.72 21.03 81.66Q23.13 81.59 25.25 81.47L25.25 81.47ZM56.38 48.84L56.38 61.34Q54.44 61.22 52.44 61.16Q50.44 61.09 48.44 61.09L48.44 61.09Q47.38 61.09 46.25 61.16Q45.13 61.22 44.06 61.22L44.06 61.22L44.88 95.28Q43.44 95.09 41.78 95.06Q40.13 95.03 38.56 95.03L38.56 95.03Q37 95.03 35.66 95.06Q34.31 95.09 33.25 95.16L33.25 95.16Q32.06 95.22 30.94 95.28L30.94 95.28Q31.50 83.66 31.84 72.25Q32.19 60.84 32.19 49.22L32.19 49.22Q32.19 38.09 31.91 27.13Q31.63 16.16 30.94 5.03L30.94 5.03Q38.31 5.59 45 5.59L45 5.59Q49.25 5.59 53.47 5.38Q57.69 5.16 62.50 4.78L62.50 4.78L62.50 19.16Q58.63 18.47 54.84 18.09Q51.06 17.72 47.31 17.72L47.31 17.72L44.88 17.72Q44.38 24.72 44.22 31.84Q44.06 38.97 44.06 46.41L44.06 46.41L44.06 48.84Q45.63 48.97 47.19 48.97Q48.75 48.97 50.38 48.97L50.38 48.97Q51.81 48.97 53.31 48.97Q54.81 48.97 56.38 48.84L56.38 48.84ZM99.94 80.84L102.25 93.22Q99.81 94.34 97.44 94.94Q95.06 95.53 93.19 95.84L93.19 95.84Q91 96.16 88.94 96.22L88.94 96.22Q86.69 96.22 84.09 95.41Q81.50 94.59 78.88 92.63Q76.25 90.66 73.81 87.25Q71.38 83.84 69.50 78.69Q67.63 73.53 66.50 66.34Q65.38 59.16 65.38 49.59L65.38 49.59Q65.38 40.03 66.72 32.91Q68.06 25.78 70.22 20.69Q72.38 15.59 75.09 12.31Q77.81 9.03 80.63 7.13Q83.44 5.22 86.09 4.50Q88.75 3.78 90.69 3.78L90.69 3.78Q92.50 3.84 94.25 4.16L94.25 4.16Q95.75 4.47 97.41 5.09Q99.06 5.72 100.31 6.84L100.31 6.84L99.06 19.41Q97.31 18.53 95.78 18.13Q94.25 17.72 92.88 17.72L92.88 17.72Q90.25 17.72 88.22 19.13Q86.19 20.53 84.72 22.84Q83.25 25.16 82.22 28.09Q81.19 31.03 80.56 34.09L80.56 34.09Q79 41.28 78.81 50.47L78.81 50.47Q79 59.59 80.63 66.72L80.63 66.72Q81.31 69.78 82.34 72.69Q83.38 75.59 84.88 77.88Q86.38 80.16 88.41 81.53Q90.44 82.91 93.13 82.91L93.13 82.91Q96.06 82.91 99.94 80.84L99.94 80.84Z"></path></svg><style>@media (prefers-color-scheme: light) { :root { filter: none; } }
</style></svg>